<?xml version="1.0" standalone="no"?>
<!DOCTYPE svg PUBLIC "-//W3C//DTD SVG 20010904//EN"
 "http://www.w3.org/TR/2001/REC-SVG-20010904/DTD/svg10.dtd">
<svg version="1.0" xmlns="http://www.w3.org/2000/svg"
 width="367.000000pt" height="185.000000pt" viewBox="0 0 367.000000 185.000000"
 preserveAspectRatio="xMidYMid meet">

<g transform="translate(0.000000,185.000000) scale(0.100000,-0.100000)"
fill="#000000" stroke="none">
<path d="M805 1680 c-224 -61 -389 -168 -488 -318 -62 -93 -70 -126 -65 -273
4 -113 7 -129 33 -181 30 -59 38 -65 65 -48 12 8 12 15 -3 57 -49 136 2 314
137 477 52 63 221 175 323 214 72 27 203 52 277 52 28 0 26 -3 -33 -37 -90
-54 -196 -146 -246 -215 -75 -100 -101 -172 -159 -433 -14 -60 -37 -143 -51
-184 -33 -99 -33 -101 13 -90 155 35 226 88 257 192 l11 38 38 -56 c68 -97
148 -152 258 -174 89 -19 229 10 324 65 34 20 43 22 47 10 20 -52 198 -63 287
-19 l44 23 21 -24 c18 -21 28 -23 125 -24 98 -1 108 1 156 28 41 23 53 26 58
15 20 -53 199 -62 290 -15 l49 25 30 -27 c42 -40 129 -39 207 1 30 15 56 36
58 45 5 22 -16 20 -53 -4 -17 -11 -47 -20 -69 -20 -33 0 -37 3 -30 18 4 9 21
56 38 104 26 74 35 88 52 88 12 0 29 11 38 25 21 32 20 35 -9 35 -14 0 -25 2
-25 4 0 2 11 39 25 82 14 43 25 82 25 85 0 10 -144 -23 -152 -35 -4 -6 -17
-39 -29 -74 -13 -40 -26 -62 -36 -62 -17 0 -42 -28 -43 -47 0 -7 9 -13 20 -13
19 0 20 -2 6 -29 -8 -15 -17 -39 -20 -52 -12 -62 -27 -84 -74 -106 -91 -43
-162 -39 -162 10 0 17 14 29 56 51 101 53 147 154 89 192 -40 26 -144 14 -191
-21 -37 -29 -89 -122 -100 -182 -5 -26 -15 -37 -57 -58 -28 -14 -64 -25 -80
-25 l-29 0 30 25 c37 31 46 64 32 116 -9 32 -8 44 5 61 19 29 19 82 0 98 -26
22 -86 5 -122 -35 -30 -31 -33 -41 -33 -94 0 -57 -2 -61 -39 -90 -21 -17 -44
-31 -50 -31 -6 0 -28 -9 -48 -20 -48 -26 -119 -36 -138 -20 -28 23 -18 55 24
73 21 10 59 40 85 67 54 58 63 107 24 134 -31 22 -124 21 -168 -2 -46 -23 -92
-86 -114 -154 -17 -54 -19 -57 -78 -83 -85 -38 -110 -32 -212 54 -93 78 -143
111 -168 111 -42 0 -11 17 86 48 122 39 211 88 281 157 72 70 89 111 93 221 3
76 1 98 -16 130 -28 55 -77 98 -147 131 -60 28 -62 28 -285 30 -195 2 -234 0
-295 -17z m438 -66 c21 -14 45 -41 53 -59 17 -42 18 -143 2 -199 -22 -77 -116
-195 -205 -257 -42 -29 -172 -84 -180 -76 -10 11 123 378 179 496 71 148 71
148 151 95z m857 -591 c-1 -24 -2 -26 -11 -10 -5 9 -7 22 -4 27 10 17 15 11
15 -17z m346 -47 c-14 -23 -32 -48 -40 -55 -13 -11 -15 -10 -11 7 5 27 45 105
59 114 22 14 17 -23 -8 -66z m-671 42 c-10 -31 -42 -83 -61 -99 -14 -12 -12
-5 33 109 3 6 12 12 20 12 10 0 12 -6 8 -22z m225 -210 c0 -21 -13 -23 -39 -6
-18 11 -18 12 3 29 22 18 36 10 36 -23z"/>
<path d="M2990 1088 c-1 -202 -82 -367 -188 -384 -49 -8 -56 -29 -12 -39 97
-21 149 -134 151 -325 0 -115 12 -172 22 -110 3 19 8 67 11 106 5 59 27 144
53 204 3 8 7 17 7 20 10 41 82 95 139 105 44 9 51 35 8 35 -46 0 -93 39 -126
105 -29 58 -30 64 -30 200 0 125 -2 140 -17 143 -16 3 -18 -5 -18 -60z"/>
<path d="M3244 1111 c-64 -29 -89 -72 -89 -153 0 -74 16 -105 75 -145 25 -17
47 -23 90 -23 98 0 161 59 167 157 5 75 -23 127 -86 160 -53 28 -102 29 -157
4z m156 -50 c34 -25 50 -58 50 -108 0 -33 -7 -50 -31 -78 -29 -33 -35 -35 -90
-35 -50 0 -63 4 -90 28 -56 50 -48 160 13 193 59 32 104 32 148 0z"/>
<path d="M3276 1041 c-11 -17 -36 -153 -30 -162 3 -5 14 -9 24 -9 14 0 21 10
26 35 7 37 24 48 24 16 0 -32 11 -51 30 -51 26 0 32 15 22 53 -7 24 -6 36 4
45 20 19 17 60 -5 72 -24 12 -88 13 -95 1z m62 -43 c-2 -6 -10 -14 -16 -16 -7
-2 -10 2 -6 12 7 18 28 22 22 4z"/>
<path d="M1765 610 c-3 -5 -4 -14 -1 -19 3 -5 0 -11 -8 -14 -7 -3 -19 -34 -25
-69 -7 -34 -15 -73 -18 -85 -8 -35 25 -29 67 12 l36 35 -4 -36 c-4 -33 -2 -35
19 -32 21 3 26 12 41 83 22 102 22 98 -3 92 -17 -4 -19 -3 -10 6 6 6 11 17 11
24 0 17 -36 17 -44 1 -5 -10 -7 -10 -12 0 -7 14 -40 16 -49 2z m49 -72 c-16
-18 -32 -37 -36 -42 -3 -5 -2 10 4 33 9 35 14 41 36 41 l26 0 -30 -32z"/>
<path d="M681 566 c-13 -7 -30 -24 -37 -37 -19 -33 -17 -94 2 -110 21 -18 83
-17 95 2 16 25 10 30 -26 23 -42 -8 -54 10 -33 53 11 23 20 28 47 28 40 0 53
22 25 42 -22 16 -42 16 -73 -1z"/>
<path d="M785 568 c-14 -39 -33 -154 -26 -161 5 -5 30 -7 57 -5 37 2 50 7 52
21 3 13 -3 17 -27 17 -40 0 -40 16 -1 24 39 7 44 46 5 46 -37 0 -30 18 8 22
24 2 33 8 35 26 3 20 0 22 -48 22 -31 0 -52 -5 -55 -12z"/>
<path d="M912 563 c-6 -10 -13 -38 -16 -63 -4 -25 -9 -57 -12 -72 -5 -25 -2
-28 19 -28 20 0 27 6 32 30 5 22 12 30 29 30 28 0 66 39 66 68 0 45 -98 73
-118 35z m66 -45 c-6 -18 -28 -21 -28 -4 0 9 7 16 16 16 9 0 14 -5 12 -12z"/>
<path d="M1052 563 c-8 -15 -32 -134 -32 -156 0 -4 23 -7 50 -7 70 0 87 19 88
99 1 50 -3 63 -18 71 -30 16 -78 12 -88 -7z m63 -43 c-3 -5 -10 -10 -16 -10
-5 0 -9 5 -9 10 0 6 7 10 16 10 8 0 12 -4 9 -10z m-10 -70 c-3 -5 -13 -10 -21
-10 -8 0 -12 5 -9 10 3 6 13 10 21 10 8 0 12 -4 9 -10z"/>
<path d="M1195 568 c-5 -13 -35 -155 -35 -164 0 -2 11 -4 25 -4 19 0 26 7 31
28 3 15 10 43 15 62 15 60 12 90 -11 90 -11 0 -23 -6 -25 -12z"/>
<path d="M1286 555 c-48 -44 -59 -102 -26 -135 34 -34 110 -22 110 17 0 10 -9
12 -35 7 -35 -6 -35 -6 -35 29 0 42 20 62 55 53 33 -8 47 21 20 40 -28 21 -59
17 -89 -11z"/>
<path d="M1404 553 c-3 -16 -10 -44 -14 -63 -23 -100 -23 -92 7 -88 22 2 29 9
33 32 4 22 11 30 28 31 20 2 22 -2 16 -32 -6 -30 -4 -33 19 -33 23 0 27 6 36
53 26 130 26 127 -2 127 -25 0 -37 -16 -37 -51 0 -13 -7 -19 -21 -19 -19 0
-20 4 -15 35 6 32 5 35 -18 35 -20 0 -27 -6 -32 -27z"/>
<path d="M1560 543 c-5 -21 -13 -62 -16 -90 -6 -47 -5 -53 12 -53 10 0 33 15
52 33 l34 32 -4 -30 c-3 -26 0 -30 22 -30 22 0 26 7 42 75 9 41 15 81 13 88
-9 25 -41 11 -79 -36 -21 -26 -36 -38 -33 -27 21 71 20 75 -6 75 -22 0 -28 -7
-37 -37z"/>
<path d="M1966 558 c-35 -166 -37 -158 28 -158 49 0 54 -2 49 -20 -4 -16 0
-20 20 -20 22 0 27 6 33 37 4 22 3 38 -3 40 -6 2 -5 23 4 55 19 75 17 88 -11
88 -19 0 -26 -7 -31 -32 -18 -88 -26 -108 -44 -108 -16 0 -18 5 -10 48 5 26
11 57 14 70 4 18 1 22 -20 22 -17 0 -26 -6 -29 -22z"/>
<path d="M2146 571 c-5 -7 -36 -155 -36 -168 0 -2 25 -3 55 -3 48 0 55 2 55
20 0 15 -7 20 -25 20 -14 0 -25 5 -25 10 0 6 8 10 18 10 21 0 42 18 42 37 0 7
-11 13 -25 13 -14 0 -25 5 -25 10 0 6 9 10 19 10 33 0 51 11 51 31 0 16 -8 19
-49 19 -28 0 -52 -4 -55 -9z"/>
<path d="M2256 509 c-22 -98 -21 -109 8 -109 19 0 25 7 30 33 4 24 11 33 26
33 17 0 19 -5 14 -33 -6 -30 -4 -33 19 -33 22 0 27 6 36 50 6 28 11 69 11 90
0 33 -4 40 -19 40 -14 0 -21 -10 -25 -35 -5 -26 -12 -35 -27 -35 -17 0 -19 4
-13 35 6 32 4 35 -19 35 -23 0 -26 -6 -41 -71z"/>
<path d="M2417 573 c-16 -15 -6 -43 14 -43 17 0 20 -4 15 -22 -3 -13 -9 -42
-12 -65 -6 -41 -5 -43 19 -43 23 0 26 5 37 65 10 52 16 65 31 65 16 0 39 26
39 44 0 8 -135 7 -143 -1z"/>
<path d="M2561 543 c-5 -21 -12 -54 -16 -73 -4 -19 -9 -43 -12 -53 -4 -15 0
-18 24 -15 22 2 29 9 31 31 3 21 9 27 28 27 31 0 64 33 64 64 0 36 -26 56 -70
56 -37 0 -40 -2 -49 -37z m67 -25 c-6 -18 -25 -21 -25 -3 0 8 7 15 15 15 7 0
12 -5 10 -12z"/>
</g>
</svg>
